<svg width="16" height="16" viewBox="0 0 16 16" fill="none" xmlns="http://www.w3.org/2000/svg">
<path d="M1.22222 6.66667C0.547207 6.66667 -3.81879e-07 7.26362 -3.49691e-07 8C-3.17503e-07 8.73638 0.547207 9.33333 1.22222 9.33333L11.4477 9.33333L7.05719 13.7239C6.53649 14.2446 6.53649 15.0888 7.05719 15.6095C7.57789 16.1302 8.42211 16.1302 8.94281 15.6095L15.6095 8.94281C16.1302 8.42211 16.1302 7.57789 15.6095 7.05719L8.94281 0.390525C8.42211 -0.130175 7.57789 -0.130175 7.05719 0.390525C6.53649 0.911224 6.53649 1.75544 7.05719 2.27614L11.4477 6.66667L1.22222 6.66667Z" fill="#37474F"/>
</svg>
