<svg width="180" height="33" fill="none" xmlns="http://www.w3.org/2000/svg">
  <path fill-rule="evenodd" clip-rule="evenodd" d="M0 26.8l2.6 4.6L17.4 5.7 14.7 1 0 26.8zM16.1 1l14.6 25.3H36L21.5 1H16zM5.8 27.6L3 32h29l2.7-4.4h-29z" fill="#FFB300"/>
  <path fill-rule="evenodd" clip-rule="evenodd" d="M29 26H7l6.8-12.3L17.9 6V6l4.3 7.7L29 26zm-11.7-8.9v-7l-7.2 13.3 5.5-3.4v-.4c0-1.2.7-2.2 1.7-2.5zm.7 5c-.7 0-1.4-.4-1.8-1H16l-5.5 3.3h14.7L20 21.2c-.5.6-1.1.9-1.9 1zm7.9 1.3l-7.4-13.2V17a2.5 2.5 0 0 1 1.9 3l5.5 3.3z" fill="#000"/>
  <path fill-rule="evenodd" clip-rule="evenodd" d="M42 25h138v-2H42v2z" fill="#FFB300"/>
  <path fill-rule="evenodd" clip-rule="evenodd" d="M180 21h-10c-2.4 0-4.3-1-5.7-3.1a13 13 0 0 1-1.8-7c0-3 .6-5.3 1.8-7.3 1.4-2.3 3.3-3.4 5.7-3.4h10v4.5h-9.3c-1 0-1.9.6-2.6 1.7a9.8 9.8 0 0 0 .1 8.2c.6 1.3 1.5 2 2.5 2h9.3V21zM162 21h-4.5v-8.2h-8.2V21h-4.5V.2h4.5v8.1h8.2v-8h4.5V21zM144.2 21h-4.8l-5.3-16s-.1-.2-.4-.2c-.2 0-.3.1-.3.3L128 21h-4.8l1.7-6 2.7-8.1a42 42 0 0 1 1.7-5c.5-.5 1.1-1 1.8-1.3.7-.2 1.6-.4 2.5-.4 1 0 1.8.2 2.5.4.9.4 1.3.8 1.8 1.3l1.8 4.9 2.6 8.3 1.8 5.9zM121 12.8h-4.3a3 3 0 0 0-2.5 1.2c-.2.5-.5 1.2-.5 2 0 .2 0 .3.2.4V21h-4.6v-6.9c0-1.5.5-3 1.3-4 .9-1.2 2.3-1.8 4-1.8h5.7c.5 0 1 0 1.2-.5.2-.3.3-.8.3-1.3s0-1-.3-1.3c-.3-.4-.7-.5-1.2-.5h-11V.2H121a5 5 0 0 1 4.2 2c1 1.2 1.3 2.6 1.3 4.3 0 1.8-.4 3.2-1.3 4.4a5 5 0 0 1-4.2 1.9zM108.7 4.7h-4.6V21h-4.5V4.7H95V.2h13.6v4.5zM94.3 4.7h-4.6V21h-4.4V4.7h-4.6V.2h13.6v4.5zM84.6 21l-1.8-6-2.7-8.2-1.8-5c-.4-.5-1-1-1.7-1.3C75.8.2 75 0 74.1 0c-1 0-1.8.2-2.5.5-.8.3-1.4.7-1.8 1.3l-1.7 4.8-2.8 8.5-1.8 5.9h5l5.1-16c.2-.3.3-.3.4-.3.2 0 .4 0 .5.2L79.7 21h4.9zM63 21h-4.7L52.9 5l-.3-.2c-.2 0-.4.1-.5.3L47 21H42l1.8-6L46.5 7a42 42 0 0 1 1.8-5c.4-.5 1-1 1.8-1.3.7-.2 1.5-.4 2.5-.4a9 9 0 0 1 2.5.4c.7.4 1.3.8 1.7 1.3.2.4.9 2 1.9 4.9l2.6 8.3L63 21z" fill="#000"/>
  <path fill-rule="evenodd" clip-rule="evenodd" d="M52.6 18.3a2.7 2.7 0 0 1-2.7-2.7c0-1.6 1.1-2.8 2.7-2.8 1.4 0 2.7 1.2 2.7 2.8 0 1.5-1.3 2.7-2.7 2.7zM133.7 18.3a2.7 2.7 0 0 1-2.7-2.7c0-1.6 1.2-2.8 2.7-2.8 1.6 0 2.8 1.2 2.8 2.8 0 1.5-1.2 2.7-2.8 2.7zM46.5 32h-1l-.4-1h-1.8l-.3 1h-1l1.8-4.6h1l1.7 4.6zM45 30.2l-.7-1.9-.6 2H45zM50.4 32h-.9v-3.8h-1.1v2.4c-.1.5-.2.8-.4 1-.2.3-.5.5-1 .5a1.5 1.5 0 0 1-.3 0v-.8a1.4 1.4 0 0 0 .2 0c.3 0 .5-.2.6-.5v-1.3-2.1h3V32zM54.4 28.2H53V32h-.9v-3.8H51v-.8h3.4v.8zM59 32h-1l-.3-1H56l-.4 1h-1l1.8-4.6h1l1.8 4.6zm-1.6-1.8l-.6-1.9-.6 2h1.2zM62.6 26.3c0 .2-.2.3-.3.5l-.8.2c-.4 0-.6 0-.8-.2l-.4-.5.5-.3c0 .2.2.3.3.4h.8l.3-.4.4.3zm.8 5.7h-.9v-3.5l-.3.7-1.5 2.8h-1v-4.6h.8v3.4l.3-.6 1.6-2.8h1V32zM67.6 31.9a3 3 0 0 1-1.2.2c-.6 0-1.1-.2-1.5-.6-.5-.4-.8-1-.8-1.8s.3-1.4.7-1.8c.5-.4 1-.6 1.8-.6a3 3 0 0 1 1 .2v.8a2.1 2.1 0 0 0-.9-.2c-.5 0-1 .1-1.2.4-.3.3-.4.7-.4 1.2s.1 1 .4 1.2c.3.3.7.4 1 .4a2 2 0 0 0 1-.2v.8zM72 32h-1.2l-1.6-2.3V32h-1v-4.6h1v2l1.6-2h1l-1.8 2 2 2.6zM76.2 32h-.9v-3.5l-.3.7-1.5 2.8h-1v-4.6h.8v3.4l.3-.6 1.5-2.8h1.1V32zM80.1 26.3c0 .2-.2.3-.3.5l-.8.2c-.4 0-.7 0-.9-.2l-.3-.5.4-.3.4.4h.8l.3-.4.4.3zM81 32H80v-3.5l-.3.7-1.5 2.8H77v-4.6h.9v3.4l.3-.6 1.5-2.8H81V32zM87 28.2h-1.2V32h-.9v-3.8h-1.3v-.8h3.5v.8zM90.6 28.8c0 .4-.1.7-.4 1-.2.3-.6.5-1.1.5h-.6V32h-.9v-4.6h1.3c.5 0 1 0 1.2.4.3.2.5.6.5 1zm-1 0l-.1-.5a.8.8 0 0 0-.6-.2h-.4v1.4h.4c.2 0 .4 0 .6-.2l.1-.5zM95.4 32h-1l-.3-1h-1.8l-.4 1h-1l1.8-4.6h1l1.7 4.6zm-1.6-1.8l-.6-1.9-.7 2h1.3zM99.5 32h-.9v-2H97v2h-1v-4.6h1v1.8h1.7v-1.8h1V32zM103.7 31.9a3 3 0 0 1-1.2.2c-.6 0-1-.2-1.5-.6-.5-.4-.7-1-.7-1.8s.2-1.4.7-1.8c.4-.4 1-.6 1.7-.6a3 3 0 0 1 1 .2v.8a2.1 2.1 0 0 0-.9-.2c-.5 0-.9.1-1.2.4-.3.3-.4.7-.4 1.2s.1 1 .5 1.2c.2.3.6.4 1 .4a2 2 0 0 0 1-.2v.8zM109.6 29.7a2 2 0 0 1-.6 1.5 2 2 0 0 1-1.4.5h-.2v.6h-1v-.6h-.2a2 2 0 0 1-1.3-.5 2 2 0 0 1-.6-1.5c0-.6.2-1.1.6-1.5a2 2 0 0 1 1.3-.5h.3v-.6h.9v.6h.2c.6 0 1 .2 1.4.5.4.4.6.9.6 1.5zm-1 0c0-.4 0-.7-.3-1a1 1 0 0 0-.7-.3h-.2V31h.2c.3 0 .5-.1.7-.3.2-.3.4-.6.4-1zm-2.1 1.3v-2.6h-.2a1 1 0 0 0-.8.3c-.2.3-.3.6-.3 1s.1.7.3 1c.2.2.5.3.8.3h.2zM114.5 29.7c0 .8-.2 1.4-.6 1.8a2 2 0 0 1-1.5.6 2 2 0 0 1-1.5-.6c-.5-.4-.7-1-.7-1.8s.2-1.4.7-1.8a2 2 0 0 1 1.5-.6 2 2 0 0 1 1.5.6c.4.4.6 1 .6 1.8zm-1 0c0-.7 0-1.2-.4-1.5a1 1 0 0 0-.7-.2 1 1 0 0 0-.8.2c-.3.3-.4.8-.4 1.5s.1 1.2.4 1.4c.2.2.5.3.8.3.3 0 .5 0 .7-.3.3-.2.5-.7.5-1.4zM118.2 28.8c0 .4 0 .7-.3 1-.3.3-.7.5-1.2.5h-.6V32h-.9v-4.6h1.3c.6 0 1 0 1.3.4.3.2.4.6.4 1zm-1 0v-.5l-.7-.2h-.4v1.4h.4c.3 0 .5 0 .6-.2l.2-.5zM124.1 32h-.9v-4l-.2.7-1 3.3h-1l-1-3.3-.2-.7v4h-.9v-4.6h1.5l.9 2.7.2.8.2-.8.9-2.7h1.5V32zM129.1 32h-1l-.3-1H126l-.4 1h-1l1.8-4.6h1l1.7 4.6zm-1.6-1.8l-.6-1.9-.7 2h1.3zM132.8 28.2h-1.3V32h-.9v-3.8h-1.3v-.8h3.5v.8zM137.4 29.7c0 .8-.2 1.4-.6 1.8a2 2 0 0 1-1.5.6 2 2 0 0 1-1.5-.6c-.4-.4-.7-1-.7-1.8s.3-1.4.7-1.8a2 2 0 0 1 1.5-.6 2 2 0 0 1 1.5.6c.4.4.6 1 .6 1.8zm-1 0c0-.7 0-1.2-.4-1.5a1 1 0 0 0-.7-.2 1 1 0 0 0-.7.2c-.4.3-.5.8-.5 1.5s.1 1.2.4 1.4c.2.2.5.3.8.3.3 0 .5 0 .7-.3.3-.2.5-.7.5-1.4zM141.1 28.8c0 .4 0 .7-.3 1-.3.3-.7.5-1.2.5h-.6V32h-.8v-4.6h1.3c.5 0 .9 0 1.2.4.3.2.4.6.4 1zm-.9 0c0-.2 0-.4-.2-.5l-.5-.2h-.5v1.4h.5c.2 0 .4 0 .5-.2l.2-.5zM145.4 32h-.9v-2h-1.8v2h-.9v-4.6h1v1.8h1.7v-1.8h.9V32zM150 32h1v-4.6h-1V32zm-.6-1.5c0 .4-.1.8-.3 1-.3.4-.8.5-1.3.5h-1.5v-4.6h.9V29h.6c.5 0 .9.1 1.2.4.2.2.4.6.4 1zm-1 0v-.4c-.2-.2-.4-.3-.7-.3h-.5v1.5h.6c.2 0 .3 0 .5-.2l.2-.5zM154.8 26.3c0 .2-.2.3-.3.5l-.8.2c-.4 0-.7 0-.9-.2l-.3-.5.4-.3.4.4h.8l.3-.4.4.3zm.8 5.7h-.9v-3.5l-.3.7L153 32h-1.1v-4.6h.9v3.4l.3-.6 1.5-2.8h1.1V32zM161.6 30.8c0 .5-.2.8-.6 1-.3.2-.7.3-1.2.3l-.8-.1-.4-.2V31a3.5 3.5 0 0 0 1.2.3c.3 0 .5 0 .7-.2l.2-.4c0-.3-.2-.5-.4-.6l-.5-.1h-.5v-.8h.5l.5-.1c.2-.2.2-.3.2-.5l-.1-.4-.6-.1c-.3 0-.7 0-1 .2v-.8a4.4 4.4 0 0 1 1.2-.2c.5 0 .9.1 1.1.3.3.2.4.5.4.9 0 .2 0 .5-.2.6-.1.2-.3.4-.5.4.2 0 .4.2.6.4l.2.9zM166.6 32h-1l-.4-1h-1.8l-.4 1h-1l1.8-4.6h1l1.8 4.6zm-1.7-1.8l-.6-1.9-.6 2h1.3zM170.2 30.7c0 .4 0 .7-.3.9-.3.3-.8.4-1.4.4h-1.4v-4.6h1.5c.4 0 .8 0 1 .2.3.2.4.5.4 1 0 .2 0 .5-.2.7a1 1 0 0 1-.5.3c.3 0 .5.2.7.4l.2.7zm-1-2l-.2-.4-.6-.2h-.4v1.2h.4c.3 0 .5-.1.6-.3l.1-.3zm0 2v-.5l-.7-.2h-.5v1.3h.5c.3 0 .5 0 .6-.2l.2-.5zM175.2 29.7c0 .8-.2 1.4-.7 1.8a2 2 0 0 1-1.5.6 2 2 0 0 1-1.4-.6c-.5-.4-.7-1-.7-1.8s.2-1.4.7-1.8a2 2 0 0 1 1.4-.6 2 2 0 0 1 1.5.6c.5.4.7 1 .7 1.8zm-1 0c0-.7-.1-1.2-.4-1.5a1 1 0 0 0-.8-.2 1 1 0 0 0-.7.2c-.3.3-.5.8-.5 1.5s.2 1.2.5 1.4c.2.2.5.3.7.3.3 0 .6 0 .8-.3.3-.2.5-.7.5-1.4zM180 33h-.9v-1h-2.6v1h-.9v-1.8h.5c.2-.4.4-.8.4-1.2l.1-1.1v-1.5h2.9v3.8h.5V33zm-1.4-1.8v-3h-1.1V30l-.5 1.1h1.6z" fill="#000"/>
</svg>
