<svg>

  <symbol id="svg-menu" xmlns="http://www.w3.org/2000/svg" viewBox="0 0 20 10" width="20" height="10">
    <rect width="20" height="2" rx="1"/>
    <rect width="20" height="2" y="4" rx="1"/>
    <rect width="20" height="2" y="8" rx="1"/>
  </symbol>

  <symbol id="svg-search" xmlns="http://www.w3.org/2000/svg" viewBox="0 0 20 20" width="20" height="20">
    <path fill-rule="evenodd" d="M16 14.7a9 9 0 1 0-1.3 1.3l.2.4 3.4 3.3a1 1 0 0 0 1.4-1.4l-3.3-3.4a1 1 0 0 0-.4-.2zM16 9A7 7 0 1 1 2 9a7 7 0 0 1 14 0z" clip-rule="evenodd"/>
  </symbol>

  <symbol id="svg-arrow" viewBox="0 0 12 12" xmlns="http://www.w3.org/2000/svg">
    <path d="M11.08 5c.51 0 .92.45.92 1s-.41 1-.92 1H3.41l3.3 3.3a1 1 0 1 1-1.42 1.4l-5-5a1 1 0 0 1 0-1.4l5-5a1 1 0 0 1 1.42 1.4L3.4 5h7.67z"/>
  </symbol>

  <symbol id="svg-dropdown-arrow" xmlns="http://www.w3.org/2000/svg" viewBox="0 0 12 7">
    <path d="M11.7.3a1 1 0 0 0-1.5 0L6 4.5 1.8.3A1 1 0 0 0 .3.3a1 1 0 0 0 0 1.5l5 4.9c.2.2.5.3.7.3.3 0 .5-.1.7-.3l5-5c.4-.3.4-1 0-1.4z"/>
  </symbol>

  <symbol id="svg-print" viewBox="0 0 20 20" xmlns="http://www.w3.org/2000/svg">
    <path fill-rule="evenodd" clip-rule="evenodd" d="M4 7V2c0-1.1.9-2 2-2h8a2 2 0 0 1 2 2v5h2a2 2 0 0 1 2 2v5a2 2 0 0 1-2 2h-2v2a2 2 0 0 1-2 2H6a2 2 0 0 1-2-2v-2H2a2 2 0 0 1-2-2V9c0-1.1.9-2 2-2h2zm2 0V2h8v5H6zM2 9v5h2v-1c0-1.1.9-2 2-2h8a2 2 0 0 1 2 2v1h2V9H2zm4 4h8v5H6v-5z"/>
  </symbol>

  <symbol id="svg-items" viewBox="0 0 20 17" xmlns="http://www.w3.org/2000/svg">
    <path d="M12 9a1 1 0 1 1 0 2H8a1 1 0 1 1 0-2h4z"/>
    <path fill-rule="evenodd" clip-rule="evenodd" d="M0 2C0 .9.9 0 2 0h16a2 2 0 0 1 2 2v4h-2v9a2 2 0 0 1-2 2H4a2 2 0 0 1-2-2V6H0V2zm18 2V2H2v2h16zm-2 11V6H4v9h12z"/>
  </symbol>

  <symbol id="svg-close" xmlns="http://www.w3.org/2000/svg" viewBox="0 0 22 22">
    <path fill-rule="evenodd" d="M11 22a11 11 0 1 1 0-22 11 11 0 0 1 0 22zm0-2a9 9 0 1 0 0-18 9 9 0 0 0 0 18zm-3.3-4.3l3.3-3.3 3.3 3.3 1.4-1.4-3.3-3.3 3.3-3.3-1.4-1.4L11 9.6 7.7 6.3 6.3 7.7 9.6 11l-3.3 3.3 1.4 1.4z" clip-rule="evenodd"/>
  </symbol>

  <symbol id="svg-close-menu" xmlns="http://www.w3.org/2000/svg" viewBox="0 0 16 16" width="16" height="16">
    <path fill-rule="evenodd" d="M2.34.7A1 1 0 1 0 .93 2.13L6.7 7.9.93 13.66a1 1 0 1 0 1.41 1.41L8.11 9.3l5.55 5.55a1 1 0 1 0 1.41-1.41L9.53 7.89l5.54-5.55A1 1 0 1 0 13.66.93L8.1 6.47 2.34.71z" clip-rule="evenodd"/>
  </symbol>

  <symbol viewBox="0 0 18 18" id="svg-file-download" xmlns="http://www.w3.org/2000/svg">
    <path fill-rule="evenodd" clip-rule="evenodd" d="M16 16v-3a1 1 0 1 1 2 0v3a2 2 0 0 1-2 2H2a2 2 0 0 1-2-2v-3a1 1 0 1 1 2 0v3h14z"/>
    <path d="M10 1c0-.6-.4-1-1-1S8 .4 8 1v7.6L4.7 5.3a1 1 0 0 0-1.4 1.4l5 5c.4.4 1 .4 1.4 0l5-5a1 1 0 0 0-1.4-1.4L10 8.6V.9z"/>
  </symbol>

  <symbol id="svg-file-upload" xmlns="http://www.w3.org/2000/svg" viewBox="0 0 18 18" width="18" height="18">
    <path fill-rule="evenodd" d="M16 16v-3a1 1 0 1 1 2 0v3a2 2 0 0 1-2 2H2a2 2 0 0 1-2-2v-3a1 1 0 1 1 2 0v3h14z" clip-rule="evenodd"/>
    <path d="M10 11c0 .6-.4 1-1 1s-1-.4-1-1V3.5L4.7 6.7a1 1 0 0 1-1.4-1.4l5-5a1 1 0 0 1 1.4 0l5 5a1 1 0 0 1-1.4 1.4L10 3.4v7.7z"/>
  </symbol>

  <symbol id="svg-file-visible" xmlns="http://www.w3.org/2000/svg" viewBox="0 0 24 18">
    <path fill-rule="evenodd" d="M12 5a4 4 0 1 0 0 8 4 4 0 0 0 0-8zm-2 4a2 2 0 1 1 4 0 2 2 0 0 1-4 0z" clip-rule="evenodd"/>
    <path fill-rule="evenodd" d="M23.9 8.55a1 1 0 0 1 0 .9L23 9l.9.45h-.01l-.01.03a9.22 9.22 0 0 1-.2.35 20.67 20.67 0 0 1-2.83 3.85C18.9 15.78 15.9 18 12 18c-3.9 0-6.9-2.23-8.85-4.32a20.67 20.67 0 0 1-3.03-4.2v-.02H.1v-.01a1 1 0 0 1 0-.9L1 9l-.9-.45h.01l.01-.03a7.4 7.4 0 0 1 .2-.35 20.68 20.68 0 0 1 2.83-3.85C5.1 2.22 8.1 0 12 0c3.9 0 6.9 2.23 8.85 4.32a20.68 20.68 0 0 1 3.03 4.2v.02h.01v.01zM2.56 9.71L2.14 9A18.68 18.68 0 0 1 4.6 5.68C6.4 3.78 8.9 2 12 2c3.1 0 5.6 1.77 7.4 3.68A18.68 18.68 0 0 1 21.86 9a18.68 18.68 0 0 1-2.46 3.32C17.6 14.22 15.1 16 12 16c-3.1 0-5.6-1.77-7.4-3.68-.88-.95-1.56-1.9-2.03-2.61zM23 9l.9-.45L23 9z" clip-rule="evenodd"/>
  </symbol>

  <symbol viewBox="0 0 18 18" id="svg-file-play" xmlns="http://www.w3.org/2000/svg">
    <path d="M7 12.07c0 .4.45.63.78.41l4.6-3.06a.5.5 0 0 0 0-.84l-4.6-3.06a.5.5 0 0 0-.78.41v6.14z"/>
    <path fill-rule="evenodd" clip-rule="evenodd" d="M9 18A9 9 0 1 0 9 0a9 9 0 0 0 0 18zm7-9A7 7 0 1 1 2 9a7 7 0 0 1 14 0z"/>
  </symbol>

  <symbol id="svg-file-pdf" viewBox="0 0 30 30" xmlns="http://www.w3.org/2000/svg">
    <g clip-path="url(#clip0)">
      <path fill-rule="evenodd" clip-rule="evenodd" d="M21 0H2a2 2 0 0 0-2 2v11.5a1.5 1.5 0 1 0 3 0V3h15v7c0 1.1.9 2 2 2h7v1.5a1.5 1.5 0 1 0 3 0V9.7L21 0zM6 22.7c0-.9-.7-1.5-1.5-1.5H3v3h1.5c.8 0 1.5-.7 1.5-1.5zm3-.2C9 25 7 27 4.5 27H3v3H0V18h4.5C7 18 9 20 9 22.5zm7.5.2c0-.9-.7-1.7-1.5-1.7h-1.5v6H15c.8 0 1.5-.5 1.5-1.3v-3zm3-.2v3c0 2.5-2 4.5-4.5 4.5h-4.5V18H15c2.5 0 4.5 2 4.5 4.5zM30 18v3h-6v3h6v3h-6v3h-3V18h9z"/>
    </g>
    <defs>
      <clipPath id="clip0">
        <path fill="#fff" d="M0 0h30v30H0z"/>
      </clipPath>
    </defs>
  </symbol>

  <symbol id="svg-place" xmlns="http://www.w3.org/2000/svg" viewBox="0 0 16 20">
    <path fill-rule="evenodd" d="M8 11a3 3 0 1 0 0-6 3 3 0 0 0 0 6zm1-3a1 1 0 1 1-2 0 1 1 0 0 1 2 0z" clip-rule="evenodd"/>
    <path fill-rule="evenodd" d="M16 8.2C16 14.5 8 20 8 20S0 14.5 0 8.2C0 6 .8 3.9 2.3 2.4a8 8 0 0 1 11.4 0A8.3 8.3 0 0 1 16 8.2zm-2 0c0 2.4-1.6 4.8-3.5 7-.9 1-1.8 1.7-2.5 2.3L5.5 15c-2-2-3.5-4.5-3.5-7 0-1.6.6-3.1 1.8-4.3a6 6 0 0 1 8.4 0A6.3 6.3 0 0 1 14 8.2z" clip-rule="evenodd"/>
  </symbol>


  <symbol id="svg-tel" xmlns="http://www.w3.org/2000/svg" viewBox="0 0 20 21">
    <path fill-rule="evenodd" d="M9 4.3c.6.6.4 1.3-.1 2a5.5 5.5 0 0 1-.8.8l-.7.8c-.1.1.6 1.5 1.9 2.8 1.3 1.3 2.7 2 2.8 2l.8-.8c.4-.5.6-.7 1-.9.6-.4 1.3-.5 1.8 0 2 1.4 3 2.2 3.6 2.8 1 1 .9 2.7 0 3.7L18 18.6c-2.8 2.8-8.7 1.1-13.3-3.4C.3 10.6-1.4 4.7 1.4 1.9L2.5.7c1-.9 2.7-1 3.7 0A32 32 0 0 1 9 4.3zm5.3 9l-.8.7c-1.3 1.3-3.5.2-5.6-1.9-2.1-2-3.2-4.3-2-5.6a2056.2 2056.2 0 0 0 1.3-1.3l-2.4-3c-.2-.3-.7-.2-.9 0L2.8 3.3C1 5.1 2.4 9.9 6.2 13.8c3.9 3.8 8.7 5.2 10.5 3.4l1.1-1.1c.2-.2.3-.7 0-1a28 28 0 0 0-3-2.3l-.5.5z" clip-rule="evenodd"/>
  </symbol>

  <symbol id="svg-fax" xmlns="http://www.w3.org/2000/svg" viewBox="0 0 20 21">
    <path fill-rule="evenodd" d="M8.9 6.3c.5-.7.7-1.4 0-2A32 32 0 0 0 6.3.7c-1-1-2.8-.9-3.7 0L1.4 2C-1.4 4.7.3 10.6 4.8 15.2c4.6 4.5 10.5 6.2 13.3 3.4l1.2-1.1c.9-1 1-2.6 0-3.7-.6-.6-1.6-1.4-3.6-2.8-.5-.5-1.2-.4-1.9 0l-1 .9-.7.7c-.1.1-1.5-.6-2.8-1.9-1.3-1.3-2-2.7-2-2.8l.8-.8a14.9 14.9 0 0 0 .8-.8zm4.6 7.7l.8-.7.5-.5a28 28 0 0 1 3 2.4c.3.2.2.7 0 .9l-1 1.1c-2 1.8-6.7.4-10.6-3.4C2.4 9.8 1 5 2.8 3.3l1.1-1.1c.2-.2.7-.3 1 0l2.3 3a4.2 4.2 0 0 1-.5.5l-.7.8C4.7 7.8 5.8 10 7.9 12c2 2.1 4.3 3.2 5.6 2z" clip-rule="evenodd"/>
    <path d="M10 0a1 1 0 1 0 0 2h7c.6 0 1 .4 1 1v7a1 1 0 1 0 2 0V3a3 3 0 0 0-3-3h-7z"/>
    <path d="M11 5c0-.6.4-1 1-1h3a1 1 0 1 1 0 2h-3a1 1 0 0 1-1-1zM12 7a1 1 0 1 0 0 2h3a1 1 0 1 0 0-2h-3z"/>
  </symbol>

  <symbol id="svg-mail" xmlns="http://www.w3.org/2000/svg" viewBox="0 0 20 16">
    <path fill-rule="evenodd" d="M0 2C0 .9.9 0 2 0h16a2 2 0 0 1 2 2v12a2 2 0 0 1-2 2H2a2 2 0 0 1-2-2V2zm2 .5l7.4 5c.4.2.8.2 1.2 0l7.4-5V2H2v.5zm16 2.4L11.7 9a3 3 0 0 1-3.4 0L2 4.9V14h16V4.9z" clip-rule="evenodd"/>
  </symbol>



</svg>
